<svg xmlns="http://www.w3.org/2000/svg" width="36.201" height="28.467" viewBox="0 0 36.201 28.467">
    <defs>
        <style>
            .cls-1{fill:#fff}
        </style>
    </defs>
    <path id="Path_68" d="M-1.262-73.853a19.765 19.765 0 0 0-4.592 1.934 17.058 17.058 0 0 0-3.706 2.874 13.62 13.62 0 0 0-2.5 3.518 8.756 8.756 0 0 0-.913 3.867 4.252 4.252 0 0 0 .483 2.068q.483.886 1.128.886a2.25 2.25 0 0 0 1.155-.269q.457-.269.94-.591a7.049 7.049 0 0 1 1.1-.591 4.168 4.168 0 0 1 1.638-.269 4.55 4.55 0 0 1 2.014.457 5.4 5.4 0 0 1 1.665 1.262 6.1 6.1 0 0 1 1.155 1.934 6.732 6.732 0 0 1 .43 2.417 5.683 5.683 0 0 1-.591 2.578 6.536 6.536 0 0 1-1.584 2.041 7.814 7.814 0 0 1-2.31 1.37 7.731 7.731 0 0 1-2.82.51 7.969 7.969 0 0 1-3.706-.886 9.744 9.744 0 0 1-3.008-2.417 11.923 11.923 0 0 1-2.038-3.54 12.262 12.262 0 0 1-.752-4.324 16.253 16.253 0 0 1 1.37-6.714 17.7 17.7 0 0 1 3.652-5.344 17.7 17.7 0 0 1 5.344-3.652 18.53 18.53 0 0 1 6.445-1.584zm19.39 0a20.583 20.583 0 0 0-4.565 1.934 16.238 16.238 0 0 0-3.706 2.874 13.945 13.945 0 0 0-2.471 3.518 8.756 8.756 0 0 0-.913 3.867 4.456 4.456 0 0 0 .457 2.068 1.337 1.337 0 0 0 1.155.886 2.25 2.25 0 0 0 1.155-.269q.457-.269.913-.591a6.028 6.028 0 0 1 1.074-.591 4.168 4.168 0 0 1 1.638-.269 4.55 4.55 0 0 1 2.014.457 5.4 5.4 0 0 1 1.665 1.262 6.1 6.1 0 0 1 1.156 1.935 6.732 6.732 0 0 1 .43 2.417 5.908 5.908 0 0 1-.564 2.578 6.2 6.2 0 0 1-1.558 2.041 7.732 7.732 0 0 1-2.336 1.37 7.946 7.946 0 0 1-2.847.51 7.969 7.969 0 0 1-3.706-.886 9.744 9.744 0 0 1-3.01-2.418 11.923 11.923 0 0 1-2.041-3.54 12.262 12.262 0 0 1-.752-4.324 16.253 16.253 0 0 1 1.37-6.714 17.463 17.463 0 0 1 3.679-5.344 18.159 18.159 0 0 1 5.344-3.652 18.289 18.289 0 0 1 6.418-1.584z" class="cls-1" data-name="Path 68" transform="translate(18.074 76.323)"/>
</svg>
